# xmcd CD database file
#
# Track frame offsets:
#	150
#	9435
#	22267
#	31200
#	44240
#	55192
#	70057
#	81985
#	92207
#	104310
#	117290
#	128725
#	142340
#	153085
#	165622
#	176702
#	187365
#	203390
#	214357
#	225920
#	239292
#	249595
#	264455
#	273477
#	285472
#	299467
#	311420
#	326187
#
# Disc length: 4572 seconds
#
# Revision: 0
# Processed by: cddbd v1.5.2PL0 Copyright (c) Steve Scherf et al.
# Submitted via: CDex 1.51
#
DISCID=a411da1c
DTITLE=Jim and Jesse - The Jim and Jesse Story
DYEAR=2007
DGENRE=Country
TTITLE0=Midnight Train
TTITLE1=Drifting and Dreaming of You
TTITLE2=Border Ride
TTITLE3=Just Wondering Why
TTITLE4=Golden Rocket
TTITLE5=Grave in the Valley
TTITLE6=My Little Honeysuckle Rose
TTITLE7=Sleepy-Eyed John
TTITLE8=Let me Whisper
TTITLE9=Somewhere Down South
TTITLE10=When It's Time for the Whipporwill to Sing
TTITLE11=Great Speckled Bird
TTITLE12=A Memory of You
TTITLE13=Paradise
TTITLE14=The Girl I left Behind Me
TTITLE15=Diesel on my Tail
TTITLE16=Remember me (When the Candlelights are Gleaming)
TTITLE17=Are You Missing Me?
TTITLE18=I Will Always be Waiting for You
TTITLE19=The Flame of Love
TTITLE20=Gosh, I miss you all the time
TTITLE21=Farewell Blues
TTITLE22=I want to be Loved
TTITLE23=Swing Low, Sweet Chariot
TTITLE24=Where Do We Go From Here
TTITLE25=Are You Tired of me My Darling
TTITLE26=Rider in the Rain
TTITLE27=Those Brown Eyes
EXTD=YEAR: 2007
EXTT0=
EXTT1=
EXTT2=
EXTT3=
EXTT4=
EXTT5=
EXTT6=
EXTT7=
EXTT8=
EXTT9=
EXTT10=
EXTT11=
EXTT12=
EXTT13=
EXTT14=
EXTT15=
EXTT16=
EXTT17=
EXTT18=
EXTT19=
EXTT20=
EXTT21=
EXTT22=
EXTT23=
EXTT24=
EXTT25=
EXTT26=
EXTT27=
PLAYORDER=
